# xmcd
#
# Track frame offsets: 
#        200
#        17225
#        30650
#        53600
#        68150
#        80375
#        99650
#        115400
#        135125
#        147725
#        162650
#        180575
#        203300
#        216500
#        238700
#        250475
#        272075
#        296450
#        311000
#        325700
#        339350
#
# Disc length: 4723 seconds
#
# Revision: 3
# Processed by: cddbd v1.5.2PL0 Copyright (c) Steve Scherf et al.
# Submitted via: ExactAudioCopy v0.99pb4
#
DISCID=34127115
DTITLE=Charlie Musselwhite - The Blues never die
DYEAR=1994
DGENRE=Blues
TTITLE0=Tennessee Woman
TTITLE1=Stingaree
TTITLE2=Arkansas Boogie
TTITLE3=Temperature
TTITLE4=Done Somebody Wrong
TTITLE5=River Hip Mama
TTITLE6=Help Me
TTITLE7=Juke
TTITLE8=Taylor, Arkansas
TTITLE9=I don't Play, I'll Be Your Man Some Day
TTITLE10=Finger Lickin' Good
TTITLE11=Blue Feeling Today
TTITLE12=Crazy For My Baby
TTITLE13=I'm A Stranger
TTITLE14=Everything's Gonna Be Allright
TTITLE15=Too Hot To Touch
TTITLE16=Blues Got Me Again
TTITLE17=The Blues Never Die
TTITLE18=After While
TTITLE19=Trouble For Everybody
TTITLE20=Christo Redentor
EXTD=
EXTT0=
EXTT1=
EXTT2=
EXTT3=
EXTT4=
EXTT5=
EXTT6=
EXTT7=
EXTT8=
EXTT9=
EXTT10=
EXTT11=
EXTT12=
EXTT13=
EXTT14=
EXTT15=
EXTT16=
EXTT17=
EXTT18=
EXTT19=
EXTT20=
PLAYORDER=
